<svg width="56" height="56" viewBox="0 0 56 56" fill="none" xmlns="http://www.w3.org/2000/svg">
<path d="M36.6434 18.6506C39.2106 20.6684 41.0849 23.412 41.9904 26.5512C42.2063 27.2996 44.1698 26.7683 43.9562 26.0244C43.027 22.8027 41.0984 19.9257 38.4623 17.8536C38.0904 17.562 37.567 17.614 37.1521 17.7982C36.9452 17.8898 36.2726 18.3589 36.6445 18.6506H36.6434Z" fill="#034b41"/>
<path d="M13.993 26.1479C15.2975 21.6273 18.6278 17.8742 23.0648 16.243C23.3101 16.1526 23.8629 15.8473 23.6085 15.5263C23.3598 15.2132 22.5956 15.446 22.3187 15.5478C17.4001 17.3553 13.4956 21.3673 12.0362 26.4248C11.861 27.033 13.8167 26.7594 13.993 26.1467V26.1479Z" fill="#034b41"/>
<path d="M18.2478 30.2756C18.0466 25.7991 12.5922 24.5782 9.49709 27.1658C8.02639 28.3957 7.36622 30.4599 8.04561 32.2855C8.77587 34.248 10.6219 35.2088 12.6182 35.2981L12.1061 34.7974C11.5432 35.4541 13.3903 38.3797 13.7995 39.0421C14.8045 40.6655 16.0909 42.1056 17.608 43.2677C20.468 45.4574 23.995 46.6149 27.5931 46.6149C35.0167 46.6149 41.8197 41.8106 43.9472 34.6538L42.5737 35.3004H42.5782C43.2542 35.3004 44.6853 34.2841 43.3695 34.2841H43.365C42.9739 34.2841 42.1294 34.4661 41.9915 34.9307C40.1274 41.2013 34.456 45.8688 27.7717 45.5851C24.5703 45.4495 21.4605 44.2105 18.9962 42.1723C17.8714 41.242 16.8721 40.1534 16.0503 38.9461C15.5698 38.2407 15.1515 37.4923 14.7988 36.7157C14.705 36.51 13.951 34.7487 13.9228 34.7838C14.2336 34.4209 13.6492 34.2943 13.4107 34.283C10.4229 34.1485 8.72049 30.4972 10.4489 28.0803C12.6194 25.0428 16.1565 27.9729 16.2843 30.8035C16.308 31.3439 18.2806 30.9731 18.2501 30.2767L18.2478 30.2756Z" fill="#034b41"/>
<path d="M42.8871 35.5276C46.1496 35.4824 48.9632 32.4189 48.0464 29.1271C47.141 25.8771 43.1539 24.6461 40.3516 26.2897C38.8051 27.1963 37.7459 28.7891 37.721 30.6091C37.7063 31.6548 39.7027 31.3801 39.7151 30.4689C39.7298 29.3826 40.1583 28.3256 40.9914 27.6666C41.4153 27.3308 41.7646 27.1726 42.2846 27.0697C42.6181 27.003 43.2218 27.0166 43.6638 27.1522C45.876 27.8294 46.8776 30.5051 45.7358 32.4981C45.4543 32.9898 45.0711 33.3809 44.5862 33.6681C44.4268 33.7619 44.134 33.8851 43.9328 33.9416C43.6038 34.0343 43.441 34.0479 43.0522 34.0535C42.617 34.0592 42.0212 34.3848 41.9726 34.8607C41.9206 35.3739 42.4903 35.5333 42.8871 35.5288V35.5276Z" fill="#034b41"/>
<path d="M31.139 37.0516C31.1073 37.1251 31.07 37.1975 31.0316 37.2675C31.0044 37.3173 30.8688 37.54 30.9366 37.4349C31.0157 37.3116 30.8914 37.4982 30.8756 37.5208C30.8349 37.5784 30.7942 37.6349 30.7512 37.6903C30.6619 37.8056 30.5681 37.9176 30.4686 38.0249C30.4188 38.0792 30.3669 38.1323 30.3149 38.1832C30.4415 38.06 30.2696 38.2182 30.2244 38.2567C30.0854 38.3742 29.9384 38.4828 29.7858 38.5822C29.9237 38.4918 29.7429 38.6049 29.6931 38.6309C29.5824 38.6908 29.4682 38.7405 29.354 38.7936C29.1867 38.8716 29.4218 38.7846 29.2376 38.8366C29.12 38.8694 29.0047 38.9044 28.886 38.9327C28.834 38.9451 28.7809 38.9564 28.7277 38.9666C28.7526 38.9621 28.843 38.9496 28.7221 38.9666C28.5876 38.9847 28.4519 38.996 28.3162 39.0028C27.8991 39.0231 27.4402 38.9621 27.075 38.84C26.4228 38.6218 25.8429 38.2013 25.4483 37.7356C25.2731 37.5287 25.1137 37.306 24.9758 37.0709C24.9329 36.9974 24.8989 36.9126 24.8515 36.8425C24.8119 36.7849 24.9408 37.0426 24.8865 36.9115C24.6932 36.4525 24.1641 36.353 23.7154 36.474C23.3728 36.5655 22.7274 36.9804 22.9207 37.4382C23.444 38.6817 24.5564 39.6856 25.8089 40.1536C28.0054 40.9731 30.576 40.3378 32.1473 38.615C32.4955 38.2341 32.8233 37.7796 33.0245 37.3015C33.4688 36.2456 31.4916 36.2072 31.1378 37.0482L31.139 37.0516Z" fill="#034b41"/>
<path d="M25.5417 23.918C28.9205 23.8298 32.3446 22.0279 33.7859 18.8751C35.182 15.8207 34.4269 12.0348 31.4335 10.2555C28.5645 8.55083 24.2394 9.23814 22.3357 12.0834C21.445 13.414 21.1861 15.2724 21.9446 16.7194C22.6986 18.1584 24.2123 18.9622 25.813 18.9622C27.642 18.9622 29.8305 18.0329 30.3811 16.1338C30.9395 14.2064 29.5886 12.5514 27.6341 12.5062C27.1786 12.4961 26.6212 12.6091 26.2448 12.8781C25.9611 13.0805 25.9543 13.3111 26.3635 13.3201C27.7291 13.3518 28.6549 14.6201 28.5441 15.9303C28.4921 16.543 28.2333 17.1546 27.8206 17.6124C27.3877 18.094 27.0519 18.2127 26.4212 18.0906C23.6459 17.5525 22.8128 14.2923 24.0868 12.0473C24.6181 11.1101 25.5609 10.1979 26.6913 10.147C27.9404 10.0916 29.202 10.5822 30.1821 11.334C32.2802 12.9426 32.954 15.6963 32.2305 18.1822C31.4595 20.8308 29.2291 23.0363 26.3895 23.1109C26.0221 23.1199 25.3054 23.2612 25.0748 23.5834C24.8318 23.9236 25.2896 23.9248 25.5417 23.918Z" fill="#034b41"/>
<path d="M20.4639 29.9866V32.4227C20.4639 32.5279 20.7736 32.529 20.8007 32.529C21.0336 32.5312 21.2936 32.4815 21.5163 32.4182C21.7458 32.3538 21.9877 32.2826 22.1912 32.1559C22.2861 32.0972 22.4297 32.0248 22.4297 31.8959V29.4599C22.4297 29.3547 22.12 29.3536 22.0928 29.3536C21.86 29.3513 21.5999 29.4011 21.3772 29.4644C21.1478 29.5288 20.9059 29.6 20.7024 29.7266C20.6074 29.7854 20.4639 29.8578 20.4639 29.9866Z" fill="#034b41"/>
<path d="M33.5388 29.7844V32.2205C33.5388 32.4376 33.61 32.6173 33.7875 32.7529C33.965 32.8886 34.2453 32.9485 34.4646 32.9293C34.7246 32.9056 35.0005 32.8264 35.2028 32.6535C35.36 32.5178 35.5386 32.3211 35.5386 32.0996V29.6635C35.5386 29.4464 35.4674 29.2667 35.2899 29.131C35.1124 28.9954 34.8321 28.9355 34.6127 28.9547C34.3527 28.9784 34.0769 29.0575 33.8746 29.2305C33.7174 29.3662 33.5388 29.5629 33.5388 29.7844Z" fill="#034b41"/>
</svg>
