<svg width="48" height="48" viewBox="0 0 48 48" fill="none" xmlns="http://www.w3.org/2000/svg">
<g clip-path="url(#clip0_419_43074)">
<path d="M29.3332 13.4413C29.5163 13.6244 29.7562 13.7159 29.9961 13.7159C30.236 13.7159 30.476 13.6244 30.659 13.4413C31.0251 13.0752 31.0251 12.4815 30.659 12.1154L30.6464 12.1027C30.2803 11.7366 29.6867 11.7366 29.3205 12.1027C28.9544 12.4688 28.9544 13.0624 29.3205 13.4286L29.3332 13.4413Z" fill="#2B6037"/>
<path d="M44.4577 22.3125L47.7254 19.0448C47.9935 18.7767 48.0737 18.3734 47.9286 18.0232C47.7834 17.6728 47.4416 17.4444 47.0624 17.4444H40.2889C39.4035 13.8201 37.5453 10.5175 34.8889 7.86103C31.0289 4.00087 25.8966 1.875 20.4375 1.875C14.9784 1.875 9.84609 4.00087 5.98603 7.86103C2.12588 11.7212 0 16.8534 0 22.3125C0 27.7716 2.12588 32.9039 5.98603 36.764C7.13391 37.9118 8.39494 38.905 9.74297 39.7358L6.91856 44.7257C6.75431 45.0159 6.75656 45.3716 6.92456 45.6596C7.09247 45.9478 7.40081 46.125 7.73438 46.125H12.5625C12.9003 46.125 13.212 45.9433 13.3784 45.6493L15.3755 42.121C17.01 42.5357 18.7073 42.75 20.4375 42.75C22.1677 42.75 23.865 42.5357 25.4995 42.121L27.4966 45.6493C27.663 45.9433 27.9747 46.125 28.3125 46.125H33.1406C33.4742 46.125 33.7825 45.9478 33.9505 45.6597C34.1185 45.3716 34.1208 45.0159 33.9565 44.7258L31.1321 39.7359C32.4802 38.905 33.7412 37.9119 34.8891 36.7641C37.5444 34.1087 39.4036 30.8048 40.2889 27.1807H47.0625C47.4416 27.1807 47.7835 26.9522 47.9287 26.6019C48.0738 26.2517 47.9935 25.8484 47.7255 25.5802L44.4577 22.3125ZM42.7435 21.375H36.2008L38.2564 19.3194H44.7992L42.7435 21.375ZM12.0158 44.25H9.34228L11.3828 40.645C12.0832 40.9917 12.8021 41.2984 13.5377 41.5614L12.0158 44.25ZM31.5327 44.25H28.8592L27.3373 41.5614C28.0729 41.2984 28.7918 40.9917 29.4922 40.645L31.5327 44.25ZM33.5632 35.4382C32.3247 36.6766 30.9415 37.7174 29.4526 38.5471C29.4342 38.556 29.4157 38.5644 29.3976 38.5747C29.3862 38.5811 29.3759 38.5885 29.3649 38.5954C28.2228 39.2237 27.0192 39.7282 25.7704 40.1007C25.7213 40.1105 25.6727 40.1249 25.6248 40.1429C23.9603 40.6246 22.2183 40.875 20.4375 40.875C18.6567 40.875 16.9147 40.6246 15.2502 40.143C15.2022 40.125 15.1537 40.1106 15.1044 40.1008C13.8557 39.7282 12.6521 39.2238 11.5101 38.5955C11.4991 38.5886 11.4888 38.5812 11.4774 38.5747C11.4593 38.5645 11.4409 38.5561 11.4225 38.5472C9.93356 37.7175 8.55037 36.6767 7.31194 35.4382C3.80588 31.9322 1.875 27.2708 1.875 22.3125C1.875 17.3542 3.80587 12.6928 7.31184 9.18684C10.8178 5.68087 15.4792 3.75 20.4375 3.75C25.3958 3.75 30.0572 5.68087 33.5632 9.18684C35.8669 11.4906 37.5099 14.3285 38.3536 17.4444H37.8682C37.6195 17.4444 37.381 17.5433 37.2052 17.719L34.717 20.2073C34.466 18.5028 33.9149 16.8455 33.0828 15.3383C32.8326 14.885 32.2622 14.7205 31.8089 14.9707C31.3556 15.2209 31.1911 15.7912 31.4413 16.2445C32.3313 17.8565 32.8284 19.609 32.9557 21.3751H28.822C28.6133 19.4761 27.7742 17.7169 26.4038 16.3464C24.8101 14.7527 22.6912 13.875 20.4375 13.875C18.1838 13.875 16.0649 14.7527 14.4713 16.3463C12.8777 17.94 12 20.0588 12 22.3125C12 24.5662 12.8777 26.6851 14.4713 28.2787C16.0649 29.8723 18.1838 30.75 20.4375 30.75C22.6912 30.75 24.8101 29.8723 26.4037 28.2788C27.7741 26.9083 28.6132 25.1491 28.8219 23.25H32.9515C32.7279 26.1806 31.4913 29.0246 29.3205 31.1955C26.9478 33.5683 23.793 34.875 20.4375 34.875C17.082 34.875 13.9272 33.5683 11.5545 31.1955C9.18169 28.8228 7.875 25.6681 7.875 22.3125C7.875 18.9569 9.18169 15.8022 11.5545 13.4295C15.4903 9.49369 21.6384 8.62162 26.5056 11.3088C26.9588 11.5589 27.5291 11.3945 27.7794 10.9412C28.0297 10.4879 27.8651 9.91762 27.4118 9.66731C24.7264 8.18466 21.5643 7.59375 18.5083 8.00381C15.3503 8.42737 12.4872 9.84506 10.2287 12.1037C7.50178 14.8306 6 18.4561 6 22.3125C6 26.1689 7.50178 29.7945 10.2286 32.5213C12.9555 35.2482 16.5811 36.75 20.4375 36.75C24.2939 36.75 27.9195 35.2482 30.6463 32.5214C32.8621 30.3057 34.2678 27.5081 34.7203 24.4212L37.2052 26.9061C37.3809 27.0818 37.6194 27.1807 37.8681 27.1807H38.3533C37.5097 30.2964 35.8659 33.1354 33.5632 35.4382ZM23.4994 20.5448C23.2405 20.0963 22.6672 19.9427 22.2188 20.2016L19.9688 21.5006C19.6787 21.6681 19.5 21.9775 19.5 22.3125C19.5 22.6475 19.6787 22.9569 19.9688 23.1244L22.2188 24.4234C22.3664 24.5086 22.5276 24.5491 22.6867 24.5491C23.0107 24.5491 23.3258 24.381 23.4994 24.0802C23.6515 23.8168 23.6602 23.5105 23.5514 23.25H26.9332C26.7345 24.6472 26.0935 25.9373 25.0778 26.9528C23.8384 28.1924 22.1904 28.875 20.4375 28.875C18.6846 28.875 17.0366 28.1924 15.7971 26.9528C14.5576 25.7134 13.875 24.0654 13.875 22.3125C13.875 20.5596 14.5576 18.9116 15.7972 17.6721C17.0366 16.4326 18.6846 15.75 20.4375 15.75C22.1904 15.75 23.8384 16.4326 25.0779 17.6722C26.0935 18.6877 26.7346 19.9778 26.9333 21.375H23.5515C23.6602 21.1144 23.6515 20.8082 23.4994 20.5448ZM38.2564 25.3056L36.2008 23.25H42.7435L44.7992 25.3056H38.2564Z" fill="#2B6037"/>
</g>
<defs>
<clipPath id="clip0_419_43074">
<rect width="48" height="48" fill="white"/>
</clipPath>
</defs>
</svg>
