<svg width="48" height="48" viewBox="0 0 48 48" fill="none" xmlns="http://www.w3.org/2000/svg">
<g clip-path="url(#clip0_419_43087)">
<path d="M47.0682 0.00115319C33.389 -0.105721 21.5479 7.22502 13.2902 18.2465C9.75216 16.5942 5.4965 17.313 2.69442 20.1151C2.32852 20.4811 2.32833 21.0748 2.69442 21.441L10.2617 29.0083L8.85329 34.0128C8.76142 34.3392 8.85301 34.6899 9.09282 34.9297L13.0706 38.9076C13.3116 39.1486 13.6631 39.2385 13.9875 39.1471L18.9919 37.7386C19.8058 38.5524 25.751 44.4977 26.5592 45.306C26.9252 45.6719 27.519 45.672 27.8851 45.306C30.6878 42.5031 31.4065 38.2472 29.7528 34.7095C32.793 32.4324 36.9177 28.8189 40.4713 23.8768C40.7736 23.4564 40.6779 22.8707 40.2575 22.5683C39.8372 22.2662 39.2514 22.3619 38.949 22.7822C35.2787 27.8866 30.9668 31.5232 27.9957 33.6754C24.9188 35.9058 22.5995 37.0676 21.473 37.568C20.5704 36.6653 17.6581 33.753 16.6156 32.7105L21.9189 27.4072C22.285 27.0411 22.285 26.4475 21.9189 26.0813C21.5529 25.7153 20.9592 25.7153 20.5931 26.0813L15.2898 31.3846C11.7822 27.877 15.5994 31.6933 10.4324 26.5272C13.4158 19.8099 22.8786 7.31342 36.9929 3.25163C37.3041 5.1869 38.2119 6.97771 39.617 8.38367C41.0222 9.78803 42.8124 10.6957 44.747 11.0072C44.2958 12.5728 43.7332 14.1254 43.065 15.6356C42.8556 16.1091 43.0696 16.6628 43.5431 16.8722C44.0176 17.0818 44.5705 16.8671 44.7797 16.3941C47.026 11.3161 48.0359 6.11081 47.9989 0.931992C47.9953 0.419463 47.5807 0.00480942 47.0682 0.00115319ZM28.1962 35.8299C29.2119 38.3048 28.825 41.1574 27.1807 43.2755L22.8865 38.9811C24.481 38.2146 26.3504 37.1062 28.1962 35.8299ZM11.7817 30.5281C12.3778 31.1242 16.8686 35.6151 17.472 36.2183L14.0081 37.1932L10.8069 33.9919L11.7817 30.5281ZM9.01904 25.1138L4.72466 20.8195C6.84227 19.1756 9.69451 18.7885 12.1696 19.8032C10.8942 21.6483 9.7861 23.5181 9.01904 25.1138ZM45.2218 9.18354C43.6072 8.96266 42.1092 8.22354 40.9427 7.05767C39.7766 5.89096 39.0374 4.39303 38.8166 2.77829C41.1965 2.2292 43.645 1.92789 46.1186 1.88149C46.0721 4.35507 45.7708 6.80389 45.2218 9.18354Z" fill="white"/>
<path d="M25.1334 13.5854C22.5716 16.1471 22.5713 20.3039 25.1334 22.8659C27.695 25.4275 31.8519 25.428 34.4139 22.8659C36.9757 20.3042 36.976 16.1474 34.4139 13.5854C31.8523 11.0238 27.6954 11.0234 25.1334 13.5854ZM33.0881 21.5401C31.2591 23.3692 28.2883 23.3693 26.4593 21.5401C24.6303 19.7113 24.63 16.7403 26.4593 14.9113C28.2883 13.0823 31.2589 13.0822 33.0882 14.9113C34.917 16.7401 34.9173 19.7111 33.0881 21.5401Z" fill="white"/>
<path d="M41.8379 20.623C42.3557 20.623 42.7754 20.2033 42.7754 19.6855C42.7754 19.1678 42.3557 18.748 41.8379 18.748C41.3201 18.748 40.9004 19.1678 40.9004 19.6855C40.9004 20.2033 41.3201 20.623 41.8379 20.623Z" fill="white"/>
<path d="M5.11463 37.5822C3.96357 38.7342 0.730412 45.3412 0.0939431 46.6539C-0.0802444 47.0132 -0.00777568 47.4435 0.274599 47.7259C0.558474 48.0097 0.989256 48.0799 1.34654 47.9065C2.65932 47.2701 9.26626 44.0369 10.4183 42.8858C10.4184 42.8857 10.4185 42.8857 10.4186 42.8856C11.8808 41.4233 11.8808 39.0441 10.4186 37.5819C8.95313 36.1163 6.58126 36.1154 5.11463 37.5822ZM9.09301 41.5594C8.57719 42.0747 5.73188 43.6089 3.01472 44.9857C4.39154 42.2686 5.92566 39.4233 6.44072 38.9077C7.17376 38.1746 8.35941 38.1743 9.09272 38.9077C9.82379 39.6388 9.82388 40.8283 9.09301 41.5594Z" fill="white"/>
</g>
<defs>
<clipPath id="clip0_419_43087">
<rect width="48" height="48" fill="white"/>
</clipPath>
</defs>
</svg>
