<svg width="48" height="48" viewBox="0 0 48 48" fill="none" xmlns="http://www.w3.org/2000/svg">
<path d="M24.0938 23.0625C24.6112 23.0625 25.0312 22.6425 25.0312 22.125C25.0312 21.6075 24.6112 21.1875 24.0938 21.1875C23.5763 21.1875 23.1562 21.6075 23.1562 22.125C23.1562 22.6425 23.5763 23.0625 24.0938 23.0625Z" fill="white"/>
<path d="M23.1562 0.9375V7.125C23.1562 7.64282 23.5759 8.0625 24.0938 8.0625C24.6116 8.0625 25.0312 7.64282 25.0312 7.125V0.9375C25.0312 0.419678 24.6116 0 24.0938 0C23.5759 0 23.1562 0.419678 23.1562 0.9375Z" fill="white"/>
<path d="M35.5903 3.677L31.6125 7.65479C31.2463 8.021 31.2463 8.61462 31.6125 8.98047C31.9784 9.34668 32.572 9.34668 32.9382 8.98047L36.916 5.00269C37.2822 4.63684 37.2822 4.04321 36.916 3.677C36.5498 3.31079 35.9565 3.31079 35.5903 3.677Z" fill="white"/>
<path d="M11.2708 3.677C10.9045 4.04321 10.9045 4.63684 11.2708 5.00269L15.2485 8.98047C15.6147 9.34668 16.208 9.34668 16.5746 8.98047C16.9404 8.61462 16.9404 8.021 16.5746 7.65479L12.5968 3.677C12.2306 3.31079 11.637 3.31079 11.2708 3.677Z" fill="white"/>
<path d="M2.73803 22.712C2.7406 22.7153 2.74279 22.7186 2.74536 22.7219C2.74572 22.7219 2.74572 22.7223 2.74572 22.7227L23.3707 47.6602C23.3711 47.6605 23.3715 47.6609 23.3718 47.6613C23.5476 47.8729 23.8164 48 24.0933 48C24.3701 48 24.6374 47.8744 24.8147 47.6613C24.8151 47.6609 24.8154 47.6605 24.8158 47.6602L45.4408 22.7227C45.4408 22.7223 45.4412 22.7219 45.4412 22.7219C45.7147 22.3934 45.7327 21.8925 45.4503 21.5394C43.7207 19.3777 38.0001 12.2256 37.9386 12.1516C37.754 11.9293 37.4867 11.8125 37.2183 11.8125H10.9683C10.6914 11.8125 10.4164 11.9396 10.2362 12.1644L2.7362 21.5394C2.45935 21.8855 2.46594 22.3733 2.73803 22.712ZM10.858 14.3884L14.9376 21.1875H5.41906L10.858 14.3884ZM42.7678 21.1875H33.2493L37.3285 14.3884L42.7678 21.1875ZM20.3433 21.1875H18.5437L24.0933 14.2507L29.6428 21.1875H27.8433C27.3254 21.1875 26.9058 21.6072 26.9058 22.125C26.9058 22.6428 27.3254 23.0625 27.8433 23.0625H30.3324L24.0933 43.8073L17.8541 23.0625H20.3433C20.8611 23.0625 21.2808 22.6428 21.2808 22.125C21.2808 21.6072 20.8611 21.1875 20.3433 21.1875ZM32.2902 23.0625H42.7264L26.3268 42.891L32.2902 23.0625ZM31.483 20.4866L26.0437 13.6875H35.5626L31.483 20.4866ZM16.7035 20.4866L12.6243 13.6875H22.1428L16.7035 20.4866ZM15.8964 23.0625L21.8597 42.891L5.46045 23.0625H15.8964Z" fill="white"/>
</svg>
