<svg width="14" height="12" viewBox="0 0 14 12" fill="none" xmlns="http://www.w3.org/2000/svg">
<path d="M0.29221 6.54234L6.29221 0.542338C6.38507 0.449466 6.49532 0.375796 6.61665 0.325533C6.73798 0.275271 6.86803 0.2494 6.99936 0.2494C7.13069 0.2494 7.26074 0.275271 7.38207 0.325533C7.50341 0.375796 7.61365 0.449466 7.70651 0.542338L13.7065 6.54234C13.8917 6.73036 13.9951 6.98399 13.9941 7.24792C13.9931 7.51186 13.8878 7.76469 13.7012 7.95131C13.5145 8.13793 13.2617 8.24318 12.9977 8.24413C12.7338 8.24509 12.4802 8.14165 12.2922 7.95639L6.99936 2.66366L1.70651 7.95639C1.51852 8.14165 1.26491 8.24508 1.00098 8.24413C0.737043 8.24318 0.484186 8.13792 0.297537 7.95131C0.110889 7.76469 0.00558699 7.51186 0.00458852 7.24792C0.003591 6.98398 0.106978 6.73036 0.29221 6.54234ZM7.70651 5.29234C7.61365 5.19947 7.50341 5.1258 7.38207 5.07553C7.26074 5.02527 7.13069 4.9994 6.99936 4.9994C6.86803 4.9994 6.73798 5.02527 6.61665 5.07553C6.49532 5.1258 6.38507 5.19947 6.29221 5.29234L1.54221 10.0423C1.35698 10.2304 1.25359 10.484 1.25459 10.7479C1.25559 11.0119 1.36089 11.2647 1.54754 11.4513C1.73419 11.6379 1.98704 11.7432 2.25098 11.7441C2.51491 11.7451 2.76852 11.6417 2.95651 11.4564L6.99936 7.41366L11.0422 11.4564C11.2302 11.6417 11.4838 11.7451 11.7477 11.7441C12.0117 11.7432 12.2645 11.6379 12.4512 11.4513C12.6378 11.2647 12.7431 11.0119 12.7441 10.7479C12.7451 10.484 12.6417 10.2304 12.4565 10.0423L7.70651 5.29234Z" fill="#034b41d9"/>
</svg>
