<svg width="36" height="36" viewBox="0 0 36 36" fill="none" xmlns="http://www.w3.org/2000/svg">
<rect width="36" height="36" rx="18" fill="#034b41"/>
<path d="M20.5557 24.3766C22.7047 22.2276 24.8537 20.0786 27.0027 17.9296C27.1117 17.8206 27.2277 17.6276 27.0887 17.4886C24.9697 15.3696 22.8497 13.2496 20.7307 11.1306C20.3427 10.7426 18.9397 11.3026 19.3617 11.7256C21.4807 13.8446 23.6007 15.9646 25.7197 18.0836L25.8057 17.6426C23.6567 19.7916 21.5077 21.9406 19.3587 24.0896C19.1297 24.3186 19.2097 24.5656 19.5107 24.6556C19.8347 24.7526 20.3187 24.6136 20.5557 24.3766Z" fill="#034b41d9"/>
<path d="M25.8945 17.1992H9.72441C9.24641 17.1992 8.36645 17.3852 8.08445 17.8212C7.78745 18.2802 8.34142 18.3522 8.70042 18.3522H24.8704C25.3484 18.3522 26.2284 18.1662 26.5104 17.7302C26.8074 17.2712 26.2535 17.1992 25.8945 17.1992Z" fill="#034b41d9"/>
</svg>
