<svg width="32" height="38" viewBox="0 0 32 38" fill="none" xmlns="http://www.w3.org/2000/svg">
<g clip-path="url(#clip0_646_3537)">
<path d="M26.2842 28.419C29.7784 25.4666 32 21.0409 32 16.0919C32 7.2044 24.8367 0 16 0C7.16326 0 0 7.2044 0 16.0919C0 24.9794 7.16326 32.1838 16 32.1838C17.9771 32.1838 19.8696 31.8225 21.6173 31.1628L28.8929 38L26.2842 28.419Z" fill="#034b41"/>
<path d="M22.2516 14.8378C22.0534 14.9672 21.8413 15.0873 21.6373 15.2003C20.2756 15.958 18.5604 16.6421 16.0085 16.6421C13.4565 16.6421 11.7413 15.958 10.3796 15.2003C10.1756 15.0873 9.96241 14.9661 9.76539 14.8378C8.65747 14.1105 7.52637 14.9824 7.52637 16.1305C7.52637 16.3426 7.56925 16.5501 7.65037 16.7401C7.73034 16.9324 7.84855 17.1072 8.00036 17.2552C8.99935 18.2332 11.6092 20.2694 16.0096 20.2694C20.4089 20.2694 23.0199 18.2343 24.0189 17.2552C24.1707 17.1072 24.2878 16.9324 24.3689 16.7401C24.4489 16.5501 24.4929 16.3426 24.4929 16.1305C24.4929 14.9812 23.3618 14.1105 22.2539 14.8378H22.2516Z" fill="#EEEDE2"/>
</g>
<defs>
<clipPath id="clip0_646_3537">
<rect width="32" height="38" fill="white"/>
</clipPath>
</defs>
</svg>
