<svg width="37" height="36" viewBox="0 0 37 36" fill="none" xmlns="http://www.w3.org/2000/svg">
<rect x="0.5" width="36" height="36" rx="18" fill="#2B6037"/>
<path d="M22.3787 13.1213C22.9216 13.6642 23.6716 14 24.5 14C26.1569 14 27.5 12.6569 27.5 11C27.5 9.34315 26.1569 8 24.5 8C22.8431 8 21.5 9.34315 21.5 11C21.5 11.8284 21.8358 12.5784 22.3787 13.1213ZM22.3787 13.1213L14.6213 15.8787M14.6213 15.8787C14.0784 15.3358 13.3284 15 12.5 15C10.8431 15 9.5 16.3431 9.5 18C9.5 19.6569 10.8431 21 12.5 21C13.3284 21 14.0784 20.6642 14.6213 20.1213M14.6213 15.8787C15.1642 16.4216 15.5 17.1716 15.5 18C15.5 18.8284 15.1642 19.5784 14.6213 20.1213M22.3787 22.8787C21.8358 23.4216 21.5 24.1716 21.5 25C21.5 26.6569 22.8431 28 24.5 28C26.1569 28 27.5 26.6569 27.5 25C27.5 23.3431 26.1569 22 24.5 22C23.6716 22 22.9216 22.3358 22.3787 22.8787ZM22.3787 22.8787L14.6213 20.1213" stroke="#CEEA61" stroke-width="2" stroke-linecap="round" stroke-linejoin="round"/>
</svg>
