<svg width="22" height="22" viewBox="0 0 22 22" fill="none" xmlns="http://www.w3.org/2000/svg">
<path d="M10.9968 2.27291C13.8205 2.27291 14.2056 2.27291 15.3607 2.27291C16.3875 2.27291 16.9009 2.52961 17.286 2.65796C17.7994 2.91466 18.1844 3.04301 18.5695 3.42806C18.9545 3.81312 19.2112 4.19817 19.3396 4.71157C19.4679 5.09662 19.5963 5.61002 19.7246 6.63682C19.7246 7.79198 19.7246 8.04868 19.7246 11.0007C19.7246 13.9528 19.7246 14.2095 19.7246 15.3646C19.7246 16.3914 19.4679 16.9048 19.3396 17.2899C19.0829 17.8033 18.9545 18.1884 18.5695 18.5734C18.1844 18.9585 17.7994 19.2152 17.286 19.3435C16.9009 19.4719 16.3875 19.6002 15.3607 19.7286C14.2056 19.7286 13.9489 19.7286 10.9968 19.7286C8.04477 19.7286 7.78807 19.7286 6.63292 19.7286C5.60611 19.7286 5.09271 19.4719 4.70766 19.3435C4.19426 19.0868 3.80921 18.9585 3.42416 18.5734C3.03911 18.1884 2.78241 17.8033 2.65406 17.2899C2.52571 16.9048 2.39736 16.3914 2.269 15.3646C2.269 14.2095 2.269 13.9528 2.269 11.0007C2.269 8.04868 2.269 7.79198 2.269 6.63682C2.269 5.61002 2.52571 5.09662 2.65406 4.71157C2.91076 4.19817 3.03911 3.81312 3.42416 3.42806C3.80921 3.04301 4.19426 2.78631 4.70766 2.65796C5.09271 2.52961 5.60611 2.40126 6.63292 2.27291C7.78807 2.27291 8.17312 2.27291 10.9968 2.27291ZM10.9968 0.347656C8.04477 0.347656 7.78807 0.347656 6.63292 0.347656C5.47776 0.347656 4.70766 0.604358 4.06591 0.861058C3.42416 1.11776 2.78241 1.50281 2.14066 2.14456C1.4989 2.78631 1.2422 3.29971 0.857152 4.06982C0.600451 4.71157 0.4721 5.48167 0.34375 6.63682C0.34375 7.79198 0.34375 8.17703 0.34375 11.0007C0.34375 13.9528 0.34375 14.2095 0.34375 15.3646C0.34375 16.5198 0.600451 17.2899 0.857152 17.9317C1.11385 18.5734 1.4989 19.2152 2.14066 19.8569C2.78241 20.4987 3.29581 20.7554 4.06591 21.1404C4.70766 21.3971 5.47776 21.5255 6.63292 21.6538C7.78807 21.6538 8.17312 21.6538 10.9968 21.6538C13.8205 21.6538 14.2056 21.6538 15.3607 21.6538C16.5159 21.6538 17.286 21.3971 17.9277 21.1404C18.5695 20.8837 19.2112 20.4987 19.853 19.8569C20.4948 19.2152 20.7515 18.7018 21.1365 17.9317C21.3932 17.2899 21.5216 16.5198 21.6499 15.3646C21.6499 14.2095 21.6499 13.8244 21.6499 11.0007C21.6499 8.17703 21.6499 7.79198 21.6499 6.63682C21.6499 5.48167 21.3932 4.71157 21.1365 4.06982C20.8798 3.42806 20.4948 2.78631 19.853 2.14456C19.2112 1.50281 18.6978 1.24611 17.9277 0.861058C17.286 0.604358 16.5159 0.476007 15.3607 0.347656C14.2056 0.347656 13.9489 0.347656 10.9968 0.347656Z" fill="white"/>
<path d="M10.9968 5.48167C7.91642 5.48167 5.47776 7.92033 5.47776 11.0007C5.47776 14.0811 7.91642 16.5198 10.9968 16.5198C14.0772 16.5198 16.5159 14.0811 16.5159 11.0007C16.5159 7.92033 14.0772 5.48167 10.9968 5.48167ZM10.9968 14.5945C9.07157 14.5945 7.40302 13.0543 7.40302 11.0007C7.40302 9.07548 8.94322 7.40692 10.9968 7.40692C12.9221 7.40692 14.5906 8.94713 14.5906 11.0007C14.5906 12.926 12.9221 14.5945 10.9968 14.5945Z" fill="white"/>
<path d="M16.6442 6.63682C17.3531 6.63682 17.9277 6.06218 17.9277 5.35332C17.9277 4.64446 17.3531 4.06982 16.6442 4.06982C15.9354 4.06982 15.3607 4.64446 15.3607 5.35332C15.3607 6.06218 15.9354 6.63682 16.6442 6.63682Z" fill="white"/>
</svg>
