<svg width="24" height="24" viewBox="0 0 24 24" fill="none" xmlns="http://www.w3.org/2000/svg">
<g id="pin-map">
<path id="icon" d="M15.8265 14H18.5297C19.4045 14 20.1777 14.5685 20.4386 15.4035L21.8915 20.0526C22.1933 21.0185 21.4717 22 20.4598 22H3.54035C2.52839 22 1.80679 21.0185 2.10863 20.0526L3.56149 15.4035C3.82241 14.5685 4.59568 14 5.47045 14H8.17359M15.8265 14C17.0437 12.211 18.0001 10.2947 18.0001 8.44143C18.0001 4.88393 15.3138 2 12.0001 2C8.68636 2 6.00007 4.88393 6.00007 8.44143C6.00007 10.2947 6.95645 12.211 8.17359 14M15.8265 14C15.0034 15.2099 14.061 16.3615 13.2145 17.3959L13.1871 17.4294C12.5645 18.1902 11.4356 18.1902 10.813 17.4294L10.7856 17.3959C9.93913 16.3615 8.99673 15.2099 8.17359 14M14.0001 8C14.0001 9.10457 13.1046 10 12.0001 10C10.8955 10 10.0001 9.10457 10.0001 8C10.0001 6.89543 10.8955 6 12.0001 6C13.1046 6 14.0001 6.89543 14.0001 8Z" stroke="#034b41d9" stroke-width="2" stroke-linecap="round" stroke-linejoin="round"/>
</g>
</svg>
