<svg width="24" height="25" viewBox="0 0 24 25" fill="none" xmlns="http://www.w3.org/2000/svg">
<path d="M23.2969 2.4707H0.703125C0.314758 2.4707 0 2.78546 0 3.17383V21.8041C0 22.1924 0.314758 22.5072 0.703125 22.5072H23.2969C23.6852 22.5072 24 22.1924 24 21.8041V3.17383C24 2.78546 23.6852 2.4707 23.2969 2.4707ZM9.02545 14.8494V10.1285C9.02545 9.79089 9.21808 9.48309 9.52808 9.32526C9.84302 9.16504 10.2263 9.18646 10.5178 9.37726L14.541 11.7258C14.5615 11.7377 14.5812 11.7507 14.6005 11.7646C14.8383 11.9378 14.9747 12.2018 14.9747 12.489C14.9747 12.7761 14.8383 13.0401 14.6005 13.2133C14.5812 13.2272 14.5615 13.2402 14.541 13.2521L10.5178 15.6006C10.3566 15.7059 10.1678 15.7596 9.97778 15.7596C9.82379 15.7596 9.66907 15.7242 9.52808 15.6525C9.2179 15.4948 9.02545 15.187 9.02545 14.8494ZM16.5108 5.1012V3.87695H18.8701V5.1012H16.5108ZM15.1046 5.1012H12.7451V3.87695H15.1046V5.1012ZM11.3388 5.1012H8.97949V3.87695H11.3388V5.1012ZM7.57324 5.1012H5.21393V3.87695H7.57324V5.1012ZM7.57324 19.8767V21.101H5.21393V19.8767H7.57324ZM8.97949 19.8767H11.3388V21.101H8.97949V19.8767ZM12.7451 19.8767H15.1046V21.101H12.7451V19.8767ZM16.5108 19.8767H18.8701V21.101H16.5108V19.8767ZM22.5938 5.1012H20.2764V3.87695H22.5938V5.1012ZM3.80768 3.87695V5.1012H1.40625V3.87695H3.80768ZM1.40625 19.8767H3.80768V21.101H1.40625V19.8767ZM20.2764 21.101V19.8767H22.5938V21.101H20.2764Z" fill="#034b41"/>
</svg>
