<svg width="24" height="24" viewBox="0 0 24 24" fill="none" xmlns="http://www.w3.org/2000/svg">
<g id="file-document">
<path id="icon" d="M9 17H13M9 13H11M13.1429 2H7C5.34315 2 4 3.34315 4 5V19C4 20.6569 5.34315 22 7 22H17C18.6569 22 20 20.6569 20 19V8.66667M13.1429 2V7.16667C13.1429 7.9951 13.8144 8.66667 14.6429 8.66667H20M13.1429 2H13.6767C14.0672 2 14.4424 2.15229 14.7224 2.42451L19.5456 7.11379C19.8361 7.39622 20 7.78414 20 8.18929V8.66667" stroke="#034b41d9" stroke-width="2" stroke-linecap="round" stroke-linejoin="round"/>
</g>
</svg>
