<svg width="650" height="210" viewBox="0 0 650 210" fill="none" xmlns="http://www.w3.org/2000/svg">
<path d="M327.5 210C177.983 209.977 59.8784 140.414 16.9801 93.6774C-3.90928 70.9191 -5.67803 41.0191 12.5246 19.3005L12.7485 19.0293C22.8462 6.96082 37.5561 0.0225877 53.0944 0.0225877C64.334 0.0225877 75.372 3.54821 84.9995 10.2378C158.213 61.088 234.472 84.7503 324.993 84.7503C415.513 84.7503 491.772 61.0654 564.986 10.2152C574.613 3.52559 585.651 0 596.891 0C612.429 0 627.139 6.9156 637.237 19.0066L637.483 19.3005C655.686 41.0191 653.895 70.9191 633.028 93.6774C596.107 133.906 484.764 209.977 327.567 210H327.478H327.5Z" fill="url(#paint0_linear_419_43056)" fill-opacity="0.25"/>
<defs>
<linearGradient id="paint0_linear_419_43056" x1="0" y1="105" x2="650" y2="105" gradientUnits="userSpaceOnUse">
<stop stop-color="#E9F7D9"/>
<stop offset="1" stop-color="#B4D68B"/>
</linearGradient>
</defs>
</svg>
