<svg width="56" height="56" viewBox="0 0 56 56" fill="none" xmlns="http://www.w3.org/2000/svg">
<path d="M31.7884 8.2018L37.1585 13.5719L37.923 14.3365C38.2636 14.677 38.8522 14.6564 39.2636 14.4496C39.5378 14.3113 40.1058 13.8439 39.7493 13.4885L34.378 8.11723L33.6135 7.35268C33.2729 7.01212 32.6844 7.0327 32.2729 7.23955C31.9987 7.37783 31.4307 7.84524 31.7872 8.20066L31.7884 8.2018Z" fill="#034b41"/>
<path d="M37.9371 7.84719C36.1475 9.63685 34.3567 11.4276 32.567 13.2173C32.3122 13.4722 32.0573 13.727 31.8025 13.9818C31.4893 14.295 32.0802 14.3361 32.2745 14.319C32.6996 14.2813 33.2858 14.159 33.6036 13.8413C35.3932 12.0516 37.184 10.2608 38.9737 8.47117C39.2285 8.21632 39.4834 7.96148 39.7382 7.70663C40.0513 7.39349 39.4605 7.35235 39.2662 7.3695C38.8411 7.40721 38.2548 7.52949 37.9371 7.84719Z" fill="#034b41"/>
<path d="M12.5838 26.6665C10.0662 28.0345 7.54972 29.4024 5.03209 30.7692C4.72125 30.9384 4.47554 31.3761 4.87324 31.6012L13.5107 36.4765L19.6773 39.9575C20.611 40.4844 21.6144 41.2626 22.6292 41.6237C23.4852 41.9289 24.2566 41.3518 24.9846 40.9689L29.325 38.6867L42.2194 31.9075C45.0571 30.4161 47.8947 28.9236 50.7323 27.4322C51.0477 27.2665 51.6626 26.8059 51.114 26.4825C48.7209 25.0677 46.3279 23.654 43.9348 22.2392C43.336 21.885 41.5189 22.7421 42.3646 23.2426C44.7576 24.6574 47.1507 26.0711 49.5438 27.4859L49.9255 26.5362C42.0857 30.6572 34.2471 34.7783 26.4074 38.8993C25.2783 39.4924 24.1503 40.0855 23.0212 40.6798L24.2097 40.6261C18.2865 37.2833 12.3644 33.9394 6.44119 30.5967L6.28234 31.4287C8.79997 30.0607 11.3165 28.6927 13.8341 27.3259C14.2021 27.1259 14.3164 26.7648 13.9929 26.494C13.6398 26.1991 12.9084 26.4871 12.5816 26.6654L12.5838 26.6665Z" fill="#034b41"/>
<path d="M35.1009 24.1387C37.0037 25.7318 40.5316 24.2484 40.8721 21.8256C41.1624 19.7548 39.6185 17.9743 37.6448 17.5857C35.2643 17.1172 32.6496 18.4189 31.7067 20.6691C31.1799 21.9273 31.2759 23.3158 31.2759 24.6495V28.3568C31.2759 28.8059 33.2633 28.4848 33.2633 27.8243C33.2633 26.1135 33.2587 24.4027 33.2633 22.6919C33.2667 21.2839 33.637 19.8028 34.7603 18.8623C35.9855 17.836 37.7911 18.9057 38.4642 20.0999C38.9236 20.9159 39.0791 21.9444 38.7111 22.8221C38.5488 23.2084 38.2745 23.597 37.9077 23.8141C37.8505 23.8484 37.7568 23.861 37.8985 23.8472C37.934 23.8438 37.7305 23.8244 37.694 23.8164C37.4094 23.7501 37.1831 23.6027 36.9626 23.4175C36.5009 23.0313 34.6895 23.7935 35.1009 24.1387Z" fill="#034b41"/>
<path d="M19.0676 27.163C18.703 27.4692 19.2356 27.2189 19.2264 27.2304C19.1659 27.3035 18.7636 27.1389 18.6905 27.1092C18.4882 27.027 18.2985 26.9092 18.1248 26.7767C17.7282 26.475 17.4334 26.0681 17.2574 25.603C16.9179 24.7116 17.0722 23.6991 17.5453 22.8854C17.7499 22.5345 18.0139 22.2225 18.335 21.9723C18.4665 21.8694 18.6036 21.7814 18.751 21.7037C18.7167 21.722 19.0436 21.6054 18.8767 21.6477C18.7407 21.682 18.9842 21.6374 19.0162 21.6374C20.1087 21.6191 21.1029 22.258 21.7532 23.1002C22.5612 24.147 22.7349 25.347 22.7349 26.619V32.8496C22.7349 33.1022 24.7223 32.8428 24.7223 32.3171C24.7223 30.044 24.7508 27.7698 24.7223 25.4967C24.6925 23.1597 23.008 20.9769 20.5727 20.8854C18.3168 20.8009 15.6311 22.0283 15.1626 24.4248C14.9237 25.6476 15.3706 26.8875 16.4437 27.5698C17.7499 28.4006 19.735 27.9149 20.8572 26.9744C21.1978 26.6887 20.551 26.6898 20.4024 26.7035C19.9716 26.7424 19.4104 26.8772 19.0687 27.1641L19.0676 27.163Z" fill="#034b41"/>
<path d="M28.8985 30.3084V17.9637C28.8985 16.0289 29.078 14.0518 28.1111 12.2873C26.2106 8.81996 21.3697 8.26684 18.732 11.2439C17.4064 12.741 16.9641 15.0518 18.1149 16.7774C19.4234 18.7385 22.1011 19.0071 23.8987 17.5785C24.9535 16.7408 23.3422 16.1363 22.5959 16.7294C20.876 18.0962 19.3069 15.4095 19.4794 13.8815C19.6451 12.4176 20.6417 11.053 22.1342 10.7399C25.0804 10.1216 26.8689 13.4015 26.8906 15.8849C26.9226 19.4699 26.8906 23.0572 26.8906 26.6422V30.4775C26.8906 31.4798 28.8985 31.1564 28.8985 30.3084Z" fill="#034b41"/>
<path d="M24.7129 48.3585C24.7129 46.9985 24.7129 45.6386 24.7129 44.2797V43.6923C24.7129 43.5483 24.4238 43.4809 24.3404 43.4672C24.1095 43.4295 23.8261 43.4672 23.6044 43.5301C23.2776 43.6238 22.7256 43.8112 22.7256 44.2237C22.7256 45.5837 22.7256 46.9437 22.7256 48.3025V48.8899C22.7256 49.0339 23.0147 49.1013 23.0981 49.115C23.329 49.1527 23.6124 49.115 23.8341 49.0522C24.161 48.9584 24.7129 48.771 24.7129 48.3585Z" fill="#034b41"/>
<path d="M28.9879 46.1124V41.4462C28.9879 41.0428 27.0005 41.3491 27.0005 41.9788V46.6449C27.0005 47.0483 28.9879 46.7421 28.9879 46.1124Z" fill="#034b41"/>
<path d="M33.2584 43.8665V39.2004C33.2584 39.0838 32.9522 39.0689 32.911 39.0678C32.6767 39.0575 32.4093 39.1055 32.1853 39.1684C31.9511 39.2346 31.7122 39.3124 31.5065 39.4438C31.4014 39.5112 31.2722 39.5935 31.2722 39.7329V44.3991C31.2722 44.5156 31.5785 44.5305 31.6196 44.5316C31.8539 44.5419 32.1213 44.4939 32.3453 44.431C32.5796 44.3648 32.8184 44.2871 33.0242 44.1556C33.1293 44.0882 33.2584 44.0059 33.2584 43.8665Z" fill="#034b41"/>
</svg>
