<svg width="56" height="56" viewBox="0 0 56 56" fill="none" xmlns="http://www.w3.org/2000/svg">
<path d="M23.2313 40.4661C23.7955 39.2362 24.3607 38.0063 24.9249 36.7753L25.1641 36.254C25.2239 36.1231 25.0897 36.0351 24.9904 36.0001C24.8076 35.9358 24.5424 35.9572 24.3596 35.9899C24.1046 36.0351 23.8417 36.1039 23.6138 36.2291C23.4648 36.3115 23.2956 36.4052 23.2211 36.5676C22.6569 37.7975 22.0916 39.0274 21.5275 40.2585L21.2882 40.7798C21.2284 40.9107 21.3627 40.9987 21.462 41.0337C21.6448 41.098 21.91 41.0765 22.0928 41.0438C22.3478 40.9987 22.6107 40.9299 22.8386 40.8046C22.9875 40.7222 23.1568 40.6286 23.2313 40.4661Z" fill="#034b41"/>
<path d="M27.9592 40.72C28.5234 39.4901 29.0887 38.2602 29.6529 37.0292L29.8921 36.5079C30.0873 36.0825 29.7138 35.7553 29.3042 35.7226C28.8585 35.6876 28.23 35.8647 28.0235 36.3127C27.4594 37.5426 26.894 38.7725 26.3299 40.0035L26.0907 40.5248C25.8955 40.9502 26.269 41.2774 26.6786 41.3102C27.1243 41.3451 27.7527 41.168 27.9592 40.72Z" fill="#034b41"/>
<path d="M32.7688 40.4803C33.333 39.2504 33.8983 38.0205 34.4624 36.7895L34.7016 36.2682C34.7648 36.1306 34.6193 36.0155 34.5166 35.9715C34.3349 35.8947 34.0653 35.9049 33.8791 35.9353C33.4864 35.9997 32.9335 36.1531 32.7507 36.5514C32.1866 37.7813 31.6212 39.0112 31.0571 40.2423L30.8179 40.7636C30.7547 40.9012 30.9002 41.0163 31.0029 41.0603C31.1846 41.137 31.4542 41.1269 31.6404 41.0964C32.0331 41.0321 32.586 40.8787 32.7688 40.4803Z" fill="#034b41"/>
<path d="M21.7322 23.9388C21.8191 25.5963 22.6191 27.2144 24.0611 28.1013C25.6262 29.0626 27.5827 29.0525 29.273 28.4319C30.8583 27.8496 32.2281 26.6412 32.7291 24.9949C33.3114 23.0823 32.6039 21.3571 31.409 19.862C30.6756 18.9447 29.8563 18.1153 29.2414 17.1077C28.895 16.539 28.5745 15.9444 28.3184 15.3283C28.086 14.7687 26.5255 15.3035 26.3641 15.7424C25.8857 17.0434 25.1353 18.1672 24.209 19.1907C22.9779 20.5503 21.7142 22.0036 21.7322 23.9388C21.7367 24.3845 23.6989 24.0618 23.6933 23.413C23.6752 21.4214 25.2516 20.0144 26.4578 18.6254C27.2555 17.7069 27.8896 16.5819 28.3105 15.44L26.3562 15.8541C26.8076 16.9385 27.427 17.9878 28.1593 18.9063C29.2109 20.2242 30.5627 21.4203 30.9001 23.15C31.1867 24.6192 30.6902 26.2485 29.5494 27.2381C28.5328 28.1204 27.1934 28.1046 26.0357 27.4716C24.5508 26.6592 23.7802 25.0547 23.6933 23.413C23.6685 22.9458 21.6995 23.3012 21.7322 23.9388Z" fill="#034b41"/>
<path d="M24.9122 14.6249C24.4654 13.4356 23.5402 12.6051 22.7887 11.619C22.3351 11.0243 21.9514 10.3609 21.6648 9.66917C21.3715 8.9617 19.9023 9.51008 19.7026 10.0528C19.3901 10.8991 18.8993 11.6833 18.2956 12.3501C17.4414 13.2934 16.4135 14.3507 16.2792 15.6844C16.0389 18.0833 17.9785 19.9676 20.3041 20.0105C20.7238 20.0184 21.3715 19.8706 21.5983 19.4723C21.8228 19.0785 21.4064 18.8901 21.0634 18.8833C19.0809 18.8472 17.754 16.5386 18.405 14.7422C18.818 13.6026 19.8572 12.8297 20.5579 11.883C21.0205 11.259 21.3963 10.5403 21.6648 9.81022L19.7026 10.1939C19.9858 10.8754 20.3616 11.5355 20.7836 12.1391C21.4967 13.1558 22.5032 13.9614 22.95 15.1507C23.2107 15.8435 25.1548 15.2703 24.9122 14.6249Z" fill="#034b41"/>
<path d="M25.3451 11.5095C31.8444 10.6813 38.2478 13.6816 41.854 19.1394C45.1443 24.1177 45.6047 30.6509 43.1031 36.0591C40.588 41.4977 35.2024 45.3917 29.1714 45.6839C23.1403 45.9761 17.3361 42.8495 14.0729 37.8182C9.95104 31.4633 10.531 23.0977 15.2633 17.2404C15.7812 16.5995 13.8281 16.7564 13.4455 17.2314C8.82156 22.9544 7.94483 31.0593 11.6018 37.5113C14.7522 43.0695 20.6444 46.5392 27.0129 46.7491C33.3813 46.9589 39.7531 43.9158 43.427 38.6565C47.2385 33.1987 47.7519 25.8362 44.6072 19.9462C40.9141 13.0283 33.3102 9.50557 25.6283 10.485C24.7054 10.6023 23.9798 11.6833 25.3451 11.5095Z" fill="#034b41"/>
<path d="M16.4687 33.9076H39.3584C40.489 33.9076 40.8557 32.4419 39.5243 32.4419H16.6345C15.5039 32.4419 15.1372 33.9076 16.4687 33.9076Z" fill="#034b41"/>
</svg>
