<svg width="26" height="28" viewBox="0 0 26 28" fill="none" xmlns="http://www.w3.org/2000/svg">
<path d="M5.83691 5.92456C9.72304 5.92456 13.6103 5.92456 17.4964 5.92456H19.1451C19.4959 5.92456 20.0079 5.82645 20.1736 5.46558C20.3225 5.14192 20.0439 4.88818 19.7169 4.88818H6.40754C6.05681 4.88818 5.54483 4.9863 5.37905 5.34717C5.23019 5.67082 5.50987 5.92456 5.83691 5.92456Z" fill="#141E11"/>
<path d="M23.9599 0.381836H2.8614C1.85322 0.381836 0.58566 0.470926 0.402969 1.69901C0.25411 2.70269 0.402969 3.84056 0.402969 4.85212V24.1756C0.402969 24.9436 0.228174 25.9439 0.431164 26.6972C0.723244 27.7776 2.30543 27.5103 3.16025 27.5103H21.7868C22.7352 27.5103 24.1392 27.7155 24.8396 26.9284C25.3843 26.316 25.1519 25.1128 25.1519 24.3662V11.5046C25.1519 8.21273 25.3324 4.86453 25.1519 1.57722C25.1147 0.901716 24.8305 0.5431 24.1347 0.403263C23.6273 0.30064 22.2864 1.08441 23.175 1.26371C23.9114 1.41257 23.581 3.37932 23.581 3.83266V22.069C23.581 23.3377 23.457 24.682 23.581 25.9462C23.5912 26.0499 23.537 26.2439 23.581 26.3375C23.6182 26.4164 23.8618 26.7919 23.9554 26.6115C23.9284 26.6634 23.2675 26.6115 23.2021 26.6115H3.69704C3.32602 26.6115 2.75652 26.7254 2.40129 26.6115C1.76074 26.4063 1.97388 25.5041 1.97388 24.9154V2.54142C1.97388 2.2843 2.07876 1.7757 1.97388 1.53662C1.82051 1.18816 1.4134 1.38325 1.85209 1.28176C2.95387 1.02577 4.42555 1.28176 5.54876 1.28176H23.351C23.9475 1.28176 25.0177 0.381836 23.9599 0.381836Z" fill="#141E11"/>
</svg>
