<svg width="34" height="25" viewBox="0 0 34 25" fill="none" xmlns="http://www.w3.org/2000/svg">
<path d="M16.5944 0.715845C20.6294 0.715845 24.7535 0.983115 28.7783 0.715845C29.4696 0.669609 28.837 0.721484 28.8753 0.63916C28.7862 0.832 28.7479 1.06657 28.687 1.26956L27.725 4.50048C27.1567 6.40971 26.5883 8.31894 26.0199 10.2282C25.9545 10.4492 26.3244 10.4402 26.4417 10.4402H31.6766C31.8153 10.4402 32.0296 10.3973 32.1615 10.4402C32.4671 10.5406 31.989 10.147 31.9743 10.4199C31.9687 10.527 31.9845 10.6759 31.9472 10.774C31.7161 11.3773 31.8254 12.3427 31.7758 12.9821L31.2571 19.6638L31.0349 22.5327C31.0112 22.8361 30.9864 23.5646 30.9109 23.6345L31.8999 23.2669C26.7913 23.2669 21.6827 23.2669 16.5741 23.2669H3.76097C3.55685 23.2669 2.74602 23.3921 2.56897 23.2669C3.00765 23.5781 2.84526 22.9534 2.82721 22.7233L2.6558 20.5085L2.1348 13.7997C2.08856 13.2065 1.56191 10.4097 1.87317 10.0725L0.884151 10.4402H6.74943C6.93663 10.4402 7.90422 10.2507 7.80272 9.90903L6.3739 5.10945L5.42098 1.91123C5.34542 1.65975 4.87629 0.476768 4.97327 0.34708L3.98426 0.714718H16.5956C17.041 0.714718 18.2037 0.0504897 17.2203 0.0504897H6.57915C5.94988 0.0504897 3.68428 -0.261889 3.46551 0.667353C3.39333 0.975221 3.73616 1.62817 3.823 1.918L4.73307 4.97412L6.3209 10.306L7.37419 9.77483H3.62677C2.95803 9.77483 0.943923 9.45794 0.472535 10.1955C0.165795 10.6748 0.457872 11.6897 0.500726 12.2321L0.886409 17.1986L1.25743 21.9847C1.2969 22.4854 1.13338 23.6052 1.62619 23.9041C2.04683 24.1589 3.21741 23.9289 3.66511 23.9289H8.28539C12.9496 23.9289 17.6139 23.9289 22.2782 23.9289C25.1617 23.9289 28.069 24.0371 30.9515 23.9289C31.5525 23.9063 32.1976 23.8465 32.4333 23.2387C32.7457 22.4335 32.5979 21.1197 32.6633 20.2694L33.1043 14.5857L33.3095 11.9355C33.349 11.4315 33.5159 10.783 33.4381 10.2823C33.3163 9.50305 32.2596 9.77483 31.5717 9.77483H27.0665C27.2074 9.84588 27.3473 9.9158 27.4882 9.98684C28.0949 7.94792 28.7028 5.909 29.3095 3.86895C29.605 2.87656 30.135 1.74884 30.2478 0.716973C30.3064 0.182433 30.3188 0.137324 29.7042 0.0504897C28.9046 -0.0622824 28.0047 0.0504897 27.1984 0.0504897H22.9683C21.0512 0.0504897 19.1352 0.0504897 17.2181 0.0504897C16.7726 0.0504897 15.6099 0.714718 16.5933 0.714718L16.5944 0.715845Z" fill="#141E11"/>
<path d="M10.141 10.3609H22.7061C23.0422 10.3609 23.5203 10.2707 23.6759 9.92106C23.8124 9.61432 23.5553 9.35156 23.2384 9.35156H10.6733C10.3372 9.35156 9.85909 9.44178 9.70346 9.79137C9.56701 10.0981 9.82413 10.3609 10.141 10.3609Z" fill="#141E11"/>
</svg>
