<svg width="36" height="32" viewBox="0 0 36 32" fill="none" xmlns="http://www.w3.org/2000/svg">
<path d="M14.8941 20.7675C12.8714 19.3489 10.8487 17.9303 8.82607 16.5116L4.46433 13.4522C3.64736 12.8793 2.47104 12.3211 1.79644 11.5802C1.32411 11.0615 1.82469 11.0423 2.37725 10.7401L5.69149 8.93124C8.83511 7.21489 11.9787 5.49966 15.1223 3.78331C17.2535 2.61953 19.3858 1.45687 21.5169 0.29309L20.37 0.599823C21.0401 0.638165 21.9723 1.46477 22.5508 1.80759L27.0561 4.48023L31.7263 7.25098L33.3851 8.23433C33.5964 8.3595 34.1987 8.57376 34.3208 8.78915C34.5852 9.25602 33.7399 9.47705 33.3015 9.73078L29.8426 11.7403L20.2299 17.3258C18.0998 18.564 15.9687 19.8011 13.8387 21.0393L14.9856 20.7326L14.659 20.7191C14.3257 20.7044 12.8228 21.319 13.6002 21.3528C14.5223 21.3923 15.1223 21.0326 15.8693 20.5973L19.3101 18.5979C22.726 16.6131 26.1419 14.6284 29.5579 12.6425L33.7885 10.1841C34.3886 9.83566 35.1829 9.52892 35.7072 9.06882C36.505 8.36965 35.4801 8.02683 34.9151 7.69191L30.6325 5.15121L25.4606 2.08274C24.4029 1.45462 23.3238 0.634782 22.1926 0.144234C20.7372 -0.486149 18.7372 1.11405 17.5134 1.78165L7.58761 7.20249L2.93321 9.74318C2.11849 10.1875 1.13766 10.5709 0.393003 11.1291C-0.468044 11.7753 0.265315 12.1226 0.883416 12.5568L5.24515 15.6162C7.95033 17.5141 10.6566 19.4121 13.3618 21.3088C13.7212 21.5603 15.0907 20.9074 14.893 20.7675H14.8941Z" fill="#141E11"/>
<path d="M31.5072 10.73C32.0677 11.1214 34.6745 12.5558 34.4271 13.0937C34.3299 13.3035 33.6564 13.5764 33.4643 13.697L31.6451 14.8371C27.985 17.1309 24.325 19.4235 20.665 21.7172L16.11 24.5714L14.7371 25.4318C13.7201 26.069 14.9767 25.3157 15.0241 25.5412C14.9936 25.3957 14.3269 25.0856 14.2128 25.0112L12.0862 23.6219L6.42156 19.9208C4.93337 18.9487 3.21919 18.077 1.8553 16.938C1.26771 16.4475 1.62817 16.3708 2.25531 15.9761C3.0463 15.4788 3.83842 14.9803 4.62941 14.483C5.20231 14.1222 3.87458 14.2124 3.59773 14.386C2.9446 14.7976 -0.363991 16.2682 0.28123 17.1951C0.440557 17.4241 0.95244 17.6338 1.17731 17.7804L3.44292 19.2599L9.57873 23.2689C10.8861 24.1237 12.224 25.2582 13.641 25.9235C14.4557 26.3058 15.119 25.9348 15.8106 25.5017L19.8774 22.9531C23.8719 20.4508 27.8653 17.9473 31.8597 15.4449C33.0168 14.7198 34.4915 14.0692 35.513 13.1557C36.0588 12.6663 35.7831 12.4227 35.322 12.0517C34.5141 11.4022 33.6022 10.8507 32.7513 10.2564C32.4247 10.0286 31.2575 10.5553 31.5072 10.7289V10.73Z" fill="#141E11"/>
<path d="M31.2118 15.8434L33.613 17.5203C33.7113 17.5891 34.4695 18.0029 34.4334 18.1788C34.4221 18.2352 34.1927 18.313 34.1554 18.3536C33.813 18.7247 33.1361 18.9919 32.7101 19.2592L30.2321 20.812L17.4768 28.804C16.3582 29.5054 15.2395 30.2057 14.1208 30.9072L15.0903 30.597C15.2417 30.5982 15.0677 30.6568 14.9299 30.508C14.7717 30.3365 14.4812 30.2148 14.288 30.0884L12.0224 28.6089L6.10807 24.7454C4.7713 23.8715 3.10571 23.0809 1.9181 22.0074C1.41412 21.5518 1.79606 21.5191 2.36896 21.1582L4.74305 19.6652C5.44364 19.2242 3.82099 19.3336 3.48199 19.5467C2.804 19.973 -0.530579 21.4458 0.141761 22.4201C0.305609 22.6569 0.801672 22.852 1.03784 23.0054L3.30345 24.4849L9.43926 28.4939C10.758 29.3554 12.1026 30.4933 13.5298 31.1665C14.4236 31.5883 15.2112 31.1316 15.966 30.6591L20.0927 28.0733L32.161 20.5109C33.2661 19.8185 34.6628 19.1972 35.6424 18.3288C36.2899 17.756 35.8492 17.4436 35.3114 17.0692L32.7294 15.266C32.3305 14.9875 30.9044 15.6314 31.2084 15.8445L31.2118 15.8434Z" fill="#141E11"/>
</svg>
