<svg width="56" height="56" viewBox="0 0 56 56" fill="none" xmlns="http://www.w3.org/2000/svg">
<path d="M19.8548 29.5093C19.9641 31.5858 20.9539 33.517 22.7026 34.6813C24.5179 35.8896 26.9107 35.9696 28.9151 35.2185C30.8474 34.4944 32.4149 32.9495 33.0207 30.9597C33.7403 28.5984 32.8507 26.4116 31.3756 24.5659C29.9342 22.7631 28.4422 21.1315 27.5424 18.9672C27.2283 18.2116 25.7948 18.7589 25.5809 19.3388C24.9953 20.931 24.0404 22.3059 22.9121 23.5559C21.4313 25.1965 19.8278 27.014 19.8503 29.3562C19.8582 30.2312 21.8221 29.8415 21.8153 29.1378C21.7917 26.6007 23.715 24.9184 25.2374 23.1313C26.2385 21.9569 27.0132 20.5684 27.5458 19.1203L25.5842 19.4919C26.1439 20.8376 26.9062 22.1539 27.8138 23.2924C29.1111 24.9184 30.7979 26.3969 31.2134 28.5319C31.9318 32.2164 28.4005 35.8761 24.76 33.9866C22.8862 33.0136 21.9189 31.0329 21.8119 28.9846C21.7748 28.2864 19.8132 28.702 19.8548 29.5093Z" fill="#034b41"/>
<path d="M23.3187 18.0938C22.7635 16.6164 21.5699 15.6086 20.6589 14.3666C20.1162 13.6256 19.6477 12.8036 19.2953 11.9534C19.1038 11.4906 17.4879 12.0131 17.3506 12.3858C16.9677 13.4229 16.3968 14.4319 15.6581 15.255C14.6142 16.4182 13.3486 17.6524 13.1177 19.2739C12.7258 22.0395 14.9948 24.3626 17.6828 24.411C18.1377 24.4189 18.6906 24.3097 19.0667 24.0406C19.3482 23.839 19.3572 23.607 18.9484 23.5991C16.3653 23.5518 14.3868 20.7029 15.211 18.2402C15.7009 16.7763 16.9418 15.7899 17.8584 14.6087C18.4552 13.8407 18.9439 12.9601 19.2806 12.0458L17.3359 12.4782C17.6884 13.3283 18.1579 14.1492 18.6996 14.8913C19.6061 16.1334 20.8064 17.1457 21.3593 18.6186C21.5373 19.0915 23.4673 18.4902 23.3187 18.0938Z" fill="#034b41"/>
<path d="M10.2203 19.0424C8.74963 19.2744 7.27561 19.4793 5.79935 19.673C5.50657 19.7113 4.36137 20.0615 4.74423 20.5536C10.3092 27.6984 14.3822 35.5257 16.6005 44.3236C16.7199 44.7954 17.7097 44.5319 17.9574 44.4294C28.3228 40.1054 39.0834 37.3949 50.1977 35.877C50.5028 35.8353 51.621 35.4975 51.2528 34.9964C47.539 29.9562 44.2239 24.7831 41.884 18.9444C41.6272 18.3037 39.696 18.8949 39.9257 19.4692C42.2983 25.39 45.6641 30.6329 49.4286 35.7441L50.4837 34.8636C39.017 36.4288 27.8949 39.2338 17.2018 43.6952L18.5587 43.8011C16.3179 34.9165 12.1841 27.0205 6.56733 19.8092L5.51221 20.6898C6.98847 20.4961 8.46249 20.2912 9.93312 20.0592C10.8396 19.9162 11.5783 18.8307 10.2191 19.0447L10.2203 19.0424Z" fill="#034b41"/>
<path d="M30.9225 11.9245L36.2724 17.2744L37.0336 18.0356C37.3591 18.3611 37.9627 18.2946 38.3444 18.11C38.5966 17.9884 39.1799 17.5661 38.841 17.2283L33.4911 11.8783L32.7298 11.1171C32.4044 10.7917 31.8008 10.8581 31.4191 11.0428C31.1669 11.1644 30.5836 11.5867 30.9225 11.9245Z" fill="#034b41"/>
<path d="M37.0461 11.5722C35.2624 13.3559 33.4799 15.1384 31.6962 16.9221C31.4428 17.1755 31.1883 17.43 30.935 17.6833C30.6186 17.9997 31.2109 18.0752 31.4124 18.0606C31.8471 18.029 32.3977 17.8995 32.7187 17.5775C34.5023 15.7938 36.2849 14.0112 38.0686 12.2276C38.3219 11.9742 38.5764 11.7197 38.8298 11.4663C39.1462 11.1499 38.5539 11.0745 38.3523 11.0891C37.9177 11.1206 37.367 11.2501 37.0461 11.5722Z" fill="#034b41"/>
</svg>
