<svg width="56" height="56" viewBox="0 0 56 56" fill="none" xmlns="http://www.w3.org/2000/svg">
<path d="M42.4814 14.7778H41.6773C41.511 14.7778 41.3833 14.9047 41.3833 15.0698V17.6215C41.3833 18.6834 40.9416 19.2095 40.0494 19.2095C39.1672 19.2095 38.7255 18.6834 38.7255 17.6215V15.0698C38.7255 14.9047 38.5878 14.7778 38.4314 14.7778H37.6273C37.461 14.7778 37.3333 14.9047 37.3333 15.0698V17.651C37.3333 19.3364 38.2651 20.2223 40.0505 20.2223C41.8459 20.2223 42.7777 19.3364 42.7777 17.651V15.0698C42.7777 14.9047 42.64 14.7778 42.4836 14.7778H42.4814Z" fill="#034b41"/>
<path d="M40.7603 32.432C42.951 33.404 45.1893 34.2616 47.472 35.0123L47.851 33.7483C40.0887 36.3361 32.6345 40.0264 26.8048 45.7067L28.4924 45.5719C22.686 40.0135 15.439 36.3019 7.74984 33.759L7.37087 35.023C9.73557 34.2423 12.0582 33.3644 14.3287 32.3539C15.5243 31.8214 14.4616 30.8183 13.4754 31.2578C11.3667 32.1967 9.21476 33.0233 7.01739 33.7494C6.47774 33.928 5.75083 34.7193 6.63842 35.0133C14.0561 37.4675 21.1224 41.0262 26.7294 46.3921C27.2081 46.8498 27.9772 46.6862 28.4171 46.2574C33.8756 40.9385 40.9364 37.4471 48.2045 35.024C48.7408 34.8454 49.4733 34.0531 48.5835 33.7601C46.3008 33.0083 44.0624 32.1518 41.8717 31.1798C41.0694 30.8237 39.6477 31.939 40.7591 32.433L40.7603 32.432Z" fill="#034b41"/>
<path d="M38.6746 25.4827C40.3939 24.9802 42.1144 24.4777 43.8338 23.9753L42.7414 23.6978C43.2701 25.332 43.7988 26.9661 44.3275 28.6003C44.4608 29.0121 45.0954 28.964 45.4199 28.8777C45.7039 28.8013 46.3593 28.502 46.2271 28.0912C45.6984 26.4571 45.1697 24.8229 44.641 23.1888C44.5099 22.7824 43.8589 22.8206 43.5487 22.9113C41.8293 23.4138 40.1088 23.9163 38.3895 24.4188C38.0825 24.5083 37.4697 24.7836 37.5822 25.2052C37.6925 25.6171 38.3807 25.5679 38.6746 25.4827Z" fill="#034b41"/>
<path d="M10.744 23.7758C13.6846 30.5124 20.6462 34.5344 27.9256 34.2865C35.0696 34.0429 41.7777 29.9608 44.6408 23.3138C44.8735 22.7731 43.0022 22.9752 42.7466 23.5694C40.1326 29.6385 34.0351 33.4901 27.4297 33.2662C21.0492 33.0499 15.1964 29.1131 12.6436 23.2657C12.3727 22.6442 10.508 23.2351 10.744 23.7758Z" fill="#034b41"/>
<path d="M28.7497 12.23C28.3608 12.5982 27.9719 12.9674 27.5831 13.3355L27.4148 13.495C27.3428 13.5627 27.2739 13.6512 27.3744 13.7277C27.4356 13.7582 27.5011 13.7735 27.5689 13.7735C27.6639 13.7856 27.7589 13.7845 27.854 13.7714C28.1041 13.744 28.3564 13.6905 28.5935 13.602C28.7748 13.5343 28.9846 13.4622 29.1276 13.3268C29.5165 12.9586 29.9054 12.5894 30.2943 12.2213L30.4625 12.0618C30.5346 11.9941 30.6034 11.9056 30.5029 11.8292C30.4418 11.7986 30.3762 11.7833 30.3085 11.7833C30.2134 11.7713 30.1184 11.7723 30.0234 11.7855C29.7732 11.8128 29.5209 11.8663 29.2839 11.9548C29.1025 12.0225 28.8928 12.0946 28.7497 12.23Z" fill="#034b41"/>
<path d="M18.1469 22.0503C17.758 22.4195 17.3691 22.7898 16.9803 23.159L16.812 23.3196C16.6908 23.4343 16.6012 23.644 16.646 23.8122C16.6919 23.9848 16.8732 24.1115 17.036 24.1563C17.5079 24.2863 18.03 24.1279 18.3785 23.7969C18.7674 23.4277 19.1562 23.0574 19.5451 22.6882L19.7133 22.5276C19.8346 22.4129 19.9241 22.2032 19.8794 22.035C19.8335 21.8624 19.6522 21.7357 19.4894 21.6909C19.0175 21.5609 18.4953 21.7193 18.1469 22.0503Z" fill="#034b41"/>
<path d="M24.548 11.3194V9.52462C24.548 9.39572 24.2672 9.34984 24.2006 9.3422C23.9789 9.31489 23.7123 9.35531 23.5004 9.41539C23.2797 9.47874 23.0394 9.55739 22.857 9.70158L22.7281 9.81519C22.6637 9.87526 22.6374 9.94845 22.6473 10.0337V11.8284C22.6473 11.9573 22.928 12.0032 22.9946 12.0108C23.2164 12.0381 23.4829 11.9977 23.6948 11.9376C23.9155 11.8743 24.1558 11.7956 24.3382 11.6514L24.4671 11.5378C24.5316 11.4778 24.5578 11.4046 24.548 11.3194Z" fill="#034b41"/>
<path d="M24.5482 25.6673V23.8758C24.5482 23.736 24.2729 23.665 24.1899 23.6497C23.9693 23.6104 23.6973 23.6442 23.4854 23.7054C23.2636 23.7698 23.0222 23.854 22.8474 24.0102L22.7218 24.1358C22.6585 24.2079 22.6344 24.2909 22.6497 24.3848V26.1763C22.6497 26.3161 22.925 26.3871 23.008 26.4024C23.2287 26.4417 23.5007 26.4079 23.7126 26.3467C23.9343 26.2823 24.1757 26.1981 24.3505 26.0419L24.4761 25.9163C24.5395 25.8442 24.5635 25.7612 24.5482 25.6673Z" fill="#034b41"/>
<path d="M19.8215 13.0929C19.4326 12.7237 19.0437 12.3534 18.6548 11.9841C18.5991 11.9306 18.5423 11.8771 18.4866 11.8236C18.4255 11.7897 18.3599 11.7722 18.29 11.7711C18.195 11.7569 18.0999 11.7558 18.0038 11.769C17.7591 11.7886 17.4937 11.8498 17.2643 11.9361L17.0447 12.0257C16.9311 12.0759 16.8262 12.1404 16.7312 12.2201L16.6537 12.314C16.622 12.3774 16.6362 12.4276 16.6952 12.467C17.0841 12.8362 17.4729 13.2065 17.8618 13.5757C17.9175 13.6292 17.9743 13.6827 18.03 13.7363C18.0912 13.7701 18.1567 13.7876 18.2266 13.7887C18.3217 13.8029 18.4167 13.804 18.5129 13.7909C18.7575 13.7712 19.023 13.7101 19.2524 13.6238L19.4719 13.5342C19.5855 13.4839 19.6904 13.4195 19.7854 13.3397L19.863 13.2458C19.8947 13.1825 19.8805 13.1322 19.8215 13.0929Z" fill="#034b41"/>
<path d="M30.5014 23.239C30.1125 22.8698 29.7236 22.4995 29.3347 22.1303L29.1665 21.9697C29.1053 21.937 29.0398 21.9195 28.971 21.9195C28.8759 21.9053 28.7809 21.9053 28.6848 21.9184C28.4401 21.9391 28.1747 21.9992 27.9453 22.0855L27.7257 22.1751C27.6121 22.2242 27.5072 22.2887 27.4122 22.3673L27.3346 22.4602C27.3029 22.5225 27.3161 22.5727 27.375 22.6098C27.7639 22.9791 28.1528 23.3494 28.5417 23.7186L28.7099 23.8792C28.7711 23.9119 28.8366 23.9294 28.9054 23.9294C29.0005 23.9436 29.0955 23.9436 29.1916 23.9305C29.4363 23.9097 29.7018 23.8497 29.9312 23.7634L30.1507 23.6738C30.2643 23.6246 30.3692 23.5602 30.4642 23.4815L30.5418 23.3887C30.5735 23.3264 30.5603 23.2762 30.5014 23.239Z" fill="#034b41"/>
<path d="M17.3947 17.4365H15.5093C15.2733 17.4365 14.9871 17.5173 14.7687 17.5992C14.6081 17.6593 14.3579 17.7631 14.2422 17.9029C14.1755 17.9826 14.099 18.0984 14.2148 18.1825C14.3503 18.2808 14.5502 18.2623 14.7042 18.2623H16.5896C16.8256 18.2623 17.1118 18.1814 17.3302 18.0995C17.4908 18.0394 17.741 17.9357 17.8567 17.7958C17.9234 17.7161 17.9999 17.6003 17.8841 17.5162C17.7486 17.4179 17.5487 17.4365 17.3947 17.4365Z" fill="#034b41"/>
<path d="M32.1883 17.1885H30.3029C30.0735 17.1885 29.7709 17.313 29.5874 17.4463C29.4476 17.549 29.2619 17.7423 29.2499 17.9313C29.2389 18.1137 29.3099 18.2819 29.4727 18.3802C29.6726 18.5004 29.8878 18.5113 30.1161 18.5113H32.0015C32.2309 18.5113 32.5335 18.3868 32.717 18.2535C32.8568 18.1508 33.0425 17.9575 33.0545 17.7685C33.0655 17.5861 32.9944 17.4179 32.8317 17.3196C32.6318 17.1994 32.4166 17.1885 32.1883 17.1885Z" fill="#034b41"/>
<path d="M26.6495 18.107C26.6397 18.8388 26.4179 19.5947 25.9941 20.1966C25.8084 20.461 25.5888 20.7078 25.3365 20.9099C25.1082 21.0923 24.8045 21.2595 24.6603 21.3097C24.5642 21.3436 24.503 21.36 24.3632 21.3807C24.2791 21.3927 24.1229 21.4069 23.9863 21.4037C23.6422 21.3949 23.3069 21.3174 22.9858 21.1983C22.3096 20.9482 21.7153 20.4806 21.2871 19.9028C20.4002 18.7077 20.3237 17.0332 21.0545 15.7464C21.3527 15.221 21.8978 14.6813 22.3675 14.465C22.5619 14.3755 22.5095 14.3929 22.7225 14.3416C22.6165 14.3667 22.9104 14.311 22.9279 14.3099C23.2567 14.2804 23.5931 14.3176 23.9099 14.4061C25.5659 14.8692 26.6255 16.4171 26.6484 18.1059C26.6539 18.5362 28.5568 18.2216 28.548 17.5968C28.5229 15.7562 27.2656 14.1286 25.5014 13.6086C23.5123 13.0231 21.0479 13.7004 19.6901 15.2865C18.4853 16.6945 18.3007 18.7711 19.3264 20.331C20.4482 22.0361 22.5182 22.5681 24.4419 22.1519C26.6768 21.6691 28.5152 19.9738 28.548 17.5968C28.5535 17.1806 26.6572 17.4756 26.6484 18.1059L26.6495 18.107Z" fill="#034b41"/>
<path d="M48.6671 14.7778H48.1531C47.7775 14.7778 47.4453 15.0044 47.3056 15.3337L46.1259 18.2148C45.9971 18.5951 45.9442 18.8528 45.9333 19.0897L45.9225 19.3162C45.9225 19.3162 45.9357 19.3694 45.89 19.3694C45.8443 19.3694 45.8575 19.3162 45.8575 19.3162L45.8466 19.0897C45.8358 18.8528 45.7829 18.5962 45.6541 18.2148L44.4744 15.3337C44.3347 15.0044 44.0025 14.7778 43.6269 14.7778H43.1129C42.7169 14.7778 42.7373 15.0864 42.8445 15.3441L44.6886 19.6768C44.8283 20.0062 45.1605 20.2223 45.5457 20.2223H46.2319C46.6183 20.2223 46.9505 20.0062 47.089 19.6768L48.9331 15.3441C49.0403 15.0864 49.0619 14.7778 48.6647 14.7778H48.6671Z" fill="#034b41"/>
</svg>
